<svg xmlns="http://www.w3.org/2000/svg" width="960" height="496" viewBox="0 0 960 496" role="img" aria-label="Topic distribution">
<style>
.title{font:700 24px system-ui,sans-serif;fill:#172033}
.label{font:14px system-ui,sans-serif;fill:#26324a}
.value{font:600 14px system-ui,sans-serif;fill:#172033}
.bar{fill:#5078e8}
.track{fill:#edf1fb}
</style>
<rect width="960" height="496" rx="14" fill="#ffffff"/>
<text class="title" x="24" y="38">Topic distribution</text>
<text class="label" x="24" y="94">GitHub Copilot</text>
<rect class="track" x="330" y="78" width="540" height="20" rx="5"/>
<rect class="bar" x="330" y="78" width="540.0" height="20" rx="5"/>
<text class="value" x="882" y="94">3</text>
<text class="label" x="24" y="132">网络安全</text>
<rect class="track" x="330" y="116" width="540" height="20" rx="5"/>
<rect class="bar" x="330" y="116" width="360.0" height="20" rx="5"/>
<text class="value" x="882" y="132">2</text>
<text class="label" x="24" y="170">cybersecurity</text>
<rect class="track" x="330" y="154" width="540" height="20" rx="5"/>
<rect class="bar" x="330" y="154" width="360.0" height="20" rx="5"/>
<text class="value" x="882" y="170">2</text>
<text class="label" x="24" y="208">model release</text>
<rect class="track" x="330" y="192" width="540" height="20" rx="5"/>
<rect class="bar" x="330" y="192" width="360.0" height="20" rx="5"/>
<text class="value" x="882" y="208">2</text>
<text class="label" x="24" y="246">AI模型发布</text>
<rect class="track" x="330" y="230" width="540" height="20" rx="5"/>
<rect class="bar" x="330" y="230" width="180.0" height="20" rx="5"/>
<text class="value" x="882" y="246">1</text>
<text class="label" x="24" y="284">防御性研究</text>
<rect class="track" x="330" y="268" width="540" height="20" rx="5"/>
<rect class="bar" x="330" y="268" width="180.0" height="20" rx="5"/>
<text class="value" x="882" y="284">1</text>
<text class="label" x="24" y="322">模型评估</text>
<rect class="track" x="330" y="306" width="540" height="20" rx="5"/>
<rect class="bar" x="330" y="306" width="180.0" height="20" rx="5"/>
<text class="value" x="882" y="322">1</text>
<text class="label" x="24" y="360">AI safety</text>
<rect class="track" x="330" y="344" width="540" height="20" rx="5"/>
<rect class="bar" x="330" y="344" width="180.0" height="20" rx="5"/>
<text class="value" x="882" y="360">1</text>
<text class="label" x="24" y="398">governance</text>
<rect class="track" x="330" y="382" width="540" height="20" rx="5"/>
<rect class="bar" x="330" y="382" width="180.0" height="20" rx="5"/>
<text class="value" x="882" y="398">1</text>
<text class="label" x="24" y="436">partner program</text>
<rect class="track" x="330" y="420" width="540" height="20" rx="5"/>
<rect class="bar" x="330" y="420" width="180.0" height="20" rx="5"/>
<text class="value" x="882" y="436">1</text>
</svg>
